<mxfile host="app.diagrams.net" modified="2022-06-07T09:18:24.512Z" agent="5.0 (Macintosh; Intel Mac OS X 10_15_7) AppleWebKit/537.36 (KHTML, like Gecko) Chrome/102.0.5005.61 Safari/537.36" etag="nW3UpCKdwq-Q8ein1oa0" version="19.0.0" type="github">
  <diagram id="Jm_pE5WnaIOxYNPUAlIQ" name="Page-1">
    <mxGraphModel dx="946" dy="646" grid="1" gridSize="10" guides="1" tooltips="1" connect="1" arrows="1" fold="1" page="1" pageScale="1" pageWidth="827" pageHeight="1169" math="0" shadow="0">
      <root>
        <mxCell id="0" />
        <mxCell id="1" parent="0" />
        <mxCell id="d_hsOtI-LlkMr3RKBJvD-2" value="Public subnet" style="points=[[0,0],[0.25,0],[0.5,0],[0.75,0],[1,0],[1,0.25],[1,0.5],[1,0.75],[1,1],[0.75,1],[0.5,1],[0.25,1],[0,1],[0,0.75],[0,0.5],[0,0.25]];outlineConnect=0;gradientColor=none;html=1;whiteSpace=wrap;fontSize=12;fontStyle=0;container=1;pointerEvents=0;collapsible=0;recursiveResize=0;shape=mxgraph.aws4.group;grIcon=mxgraph.aws4.group_security_group;grStroke=0;strokeColor=#248814;fillColor=#E9F3E6;verticalAlign=top;align=left;spacingLeft=30;fontColor=#248814;dashed=0;" vertex="1" parent="1">
          <mxGeometry x="100" y="120" width="240" height="360" as="geometry" />
        </mxCell>
        <mxCell id="d_hsOtI-LlkMr3RKBJvD-5" value="" style="sketch=0;points=[[0,0,0],[0.25,0,0],[0.5,0,0],[0.75,0,0],[1,0,0],[0,1,0],[0.25,1,0],[0.5,1,0],[0.75,1,0],[1,1,0],[0,0.25,0],[0,0.5,0],[0,0.75,0],[1,0.25,0],[1,0.5,0],[1,0.75,0]];outlineConnect=0;fontColor=#232F3E;gradientColor=#F78E04;gradientDirection=north;fillColor=#D05C17;strokeColor=#ffffff;dashed=0;verticalLabelPosition=bottom;verticalAlign=top;align=center;html=1;fontSize=12;fontStyle=0;aspect=fixed;shape=mxgraph.aws4.resourceIcon;resIcon=mxgraph.aws4.ec2;" vertex="1" parent="d_hsOtI-LlkMr3RKBJvD-2">
          <mxGeometry x="81" y="70" width="78" height="78" as="geometry" />
        </mxCell>
        <mxCell id="d_hsOtI-LlkMr3RKBJvD-7" value="Public subnet" style="points=[[0,0],[0.25,0],[0.5,0],[0.75,0],[1,0],[1,0.25],[1,0.5],[1,0.75],[1,1],[0.75,1],[0.5,1],[0.25,1],[0,1],[0,0.75],[0,0.5],[0,0.25]];outlineConnect=0;gradientColor=none;html=1;whiteSpace=wrap;fontSize=12;fontStyle=0;container=1;pointerEvents=0;collapsible=0;recursiveResize=0;shape=mxgraph.aws4.group;grIcon=mxgraph.aws4.group_security_group;grStroke=0;strokeColor=#248814;fillColor=#E9F3E6;verticalAlign=top;align=left;spacingLeft=30;fontColor=#248814;dashed=0;" vertex="1" parent="1">
          <mxGeometry x="460" y="120" width="240" height="360" as="geometry" />
        </mxCell>
        <mxCell id="d_hsOtI-LlkMr3RKBJvD-10" value="" style="sketch=0;points=[[0,0,0],[0.25,0,0],[0.5,0,0],[0.75,0,0],[1,0,0],[0,1,0],[0.25,1,0],[0.5,1,0],[0.75,1,0],[1,1,0],[0,0.25,0],[0,0.5,0],[0,0.75,0],[1,0.25,0],[1,0.5,0],[1,0.75,0]];outlineConnect=0;fontColor=#232F3E;gradientColor=#F78E04;gradientDirection=north;fillColor=#D05C17;strokeColor=#ffffff;dashed=0;verticalLabelPosition=bottom;verticalAlign=top;align=center;html=1;fontSize=12;fontStyle=0;aspect=fixed;shape=mxgraph.aws4.resourceIcon;resIcon=mxgraph.aws4.ec2;" vertex="1" parent="d_hsOtI-LlkMr3RKBJvD-7">
          <mxGeometry x="81" y="70" width="78" height="78" as="geometry" />
        </mxCell>
        <mxCell id="d_hsOtI-LlkMr3RKBJvD-12" value="" style="edgeStyle=orthogonalEdgeStyle;rounded=0;orthogonalLoop=1;jettySize=auto;html=1;" edge="1" parent="1" source="d_hsOtI-LlkMr3RKBJvD-11" target="d_hsOtI-LlkMr3RKBJvD-5">
          <mxGeometry relative="1" as="geometry" />
        </mxCell>
        <mxCell id="d_hsOtI-LlkMr3RKBJvD-13" value="" style="edgeStyle=orthogonalEdgeStyle;rounded=0;orthogonalLoop=1;jettySize=auto;html=1;" edge="1" parent="1" source="d_hsOtI-LlkMr3RKBJvD-11" target="d_hsOtI-LlkMr3RKBJvD-10">
          <mxGeometry relative="1" as="geometry" />
        </mxCell>
        <mxCell id="d_hsOtI-LlkMr3RKBJvD-15" value="" style="edgeStyle=orthogonalEdgeStyle;rounded=0;orthogonalLoop=1;jettySize=auto;html=1;" edge="1" parent="1" source="d_hsOtI-LlkMr3RKBJvD-11" target="d_hsOtI-LlkMr3RKBJvD-14">
          <mxGeometry relative="1" as="geometry" />
        </mxCell>
        <mxCell id="d_hsOtI-LlkMr3RKBJvD-14" value="" style="outlineConnect=0;dashed=0;verticalLabelPosition=bottom;verticalAlign=top;align=center;html=1;shape=mxgraph.aws3.internet_gateway;fillColor=#F58534;gradientColor=none;" vertex="1" parent="1">
          <mxGeometry x="363.75" y="10" width="69" height="72" as="geometry" />
        </mxCell>
        <mxCell id="d_hsOtI-LlkMr3RKBJvD-16" value="VPC" style="points=[[0,0],[0.25,0],[0.5,0],[0.75,0],[1,0],[1,0.25],[1,0.5],[1,0.75],[1,1],[0.75,1],[0.5,1],[0.25,1],[0,1],[0,0.75],[0,0.5],[0,0.25]];outlineConnect=0;gradientColor=none;html=1;whiteSpace=wrap;fontSize=12;fontStyle=0;container=1;pointerEvents=0;collapsible=0;recursiveResize=0;shape=mxgraph.aws4.group;grIcon=mxgraph.aws4.group_vpc;strokeColor=#248814;fillColor=none;verticalAlign=top;align=left;spacingLeft=30;fontColor=#AAB7B8;dashed=0;" vertex="1" parent="1">
          <mxGeometry x="80" y="52.5" width="640" height="467.5" as="geometry" />
        </mxCell>
        <mxCell id="d_hsOtI-LlkMr3RKBJvD-4" value="" style="sketch=0;points=[[0,0,0],[0.25,0,0],[0.5,0,0],[0.75,0,0],[1,0,0],[0,1,0],[0.25,1,0],[0.5,1,0],[0.75,1,0],[1,1,0],[0,0.25,0],[0,0.5,0],[0,0.75,0],[1,0.25,0],[1,0.5,0],[1,0.75,0]];outlineConnect=0;fontColor=#232F3E;gradientColor=#4D72F3;gradientDirection=north;fillColor=#3334B9;strokeColor=#ffffff;dashed=0;verticalLabelPosition=bottom;verticalAlign=top;align=center;html=1;fontSize=12;fontStyle=0;aspect=fixed;shape=mxgraph.aws4.resourceIcon;resIcon=mxgraph.aws4.database;" vertex="1" parent="d_hsOtI-LlkMr3RKBJvD-16">
          <mxGeometry x="281" y="307.5" width="78" height="78" as="geometry" />
        </mxCell>
        <mxCell id="d_hsOtI-LlkMr3RKBJvD-11" value="" style="outlineConnect=0;dashed=0;verticalLabelPosition=bottom;verticalAlign=top;align=center;html=1;shape=mxgraph.aws3.elastic_load_balancing;fillColor=#F58534;gradientColor=none;" vertex="1" parent="d_hsOtI-LlkMr3RKBJvD-16">
          <mxGeometry x="280" y="130" width="76.5" height="93" as="geometry" />
        </mxCell>
        <mxCell id="d_hsOtI-LlkMr3RKBJvD-6" value="" style="edgeStyle=orthogonalEdgeStyle;rounded=0;orthogonalLoop=1;jettySize=auto;html=1;" edge="1" parent="1" source="d_hsOtI-LlkMr3RKBJvD-5" target="d_hsOtI-LlkMr3RKBJvD-4">
          <mxGeometry relative="1" as="geometry">
            <Array as="points">
              <mxPoint x="220" y="400" />
            </Array>
          </mxGeometry>
        </mxCell>
        <mxCell id="d_hsOtI-LlkMr3RKBJvD-9" value="" style="edgeStyle=orthogonalEdgeStyle;rounded=0;orthogonalLoop=1;jettySize=auto;html=1;" edge="1" parent="1" source="d_hsOtI-LlkMr3RKBJvD-10" target="d_hsOtI-LlkMr3RKBJvD-4">
          <mxGeometry relative="1" as="geometry">
            <mxPoint x="580" y="350" as="targetPoint" />
            <Array as="points">
              <mxPoint x="580" y="400" />
            </Array>
          </mxGeometry>
        </mxCell>
        <mxCell id="d_hsOtI-LlkMr3RKBJvD-18" value="" style="sketch=0;points=[[0,0,0],[0.25,0,0],[0.5,0,0],[0.75,0,0],[1,0,0],[0,1,0],[0.25,1,0],[0.5,1,0],[0.75,1,0],[1,1,0],[0,0.25,0],[0,0.5,0],[0,0.75,0],[1,0.25,0],[1,0.5,0],[1,0.75,0]];outlineConnect=0;fontColor=#232F3E;gradientColor=#F78E04;gradientDirection=north;fillColor=#D05C17;strokeColor=#ffffff;dashed=0;verticalLabelPosition=bottom;verticalAlign=top;align=center;html=1;fontSize=12;fontStyle=0;aspect=fixed;shape=mxgraph.aws4.resourceIcon;resIcon=mxgraph.aws4.ecr;" vertex="1" parent="1">
          <mxGeometry x="363.75" y="550" width="78" height="78" as="geometry" />
        </mxCell>
        <mxCell id="d_hsOtI-LlkMr3RKBJvD-21" value="" style="edgeStyle=orthogonalEdgeStyle;rounded=0;orthogonalLoop=1;jettySize=auto;html=1;" edge="1" parent="1" source="d_hsOtI-LlkMr3RKBJvD-19" target="d_hsOtI-LlkMr3RKBJvD-20">
          <mxGeometry relative="1" as="geometry" />
        </mxCell>
        <mxCell id="d_hsOtI-LlkMr3RKBJvD-19" value="git push" style="rounded=1;whiteSpace=wrap;html=1;" vertex="1" parent="1">
          <mxGeometry x="80" y="690" width="120" height="60" as="geometry" />
        </mxCell>
        <mxCell id="d_hsOtI-LlkMr3RKBJvD-23" value="" style="edgeStyle=orthogonalEdgeStyle;rounded=0;orthogonalLoop=1;jettySize=auto;html=1;" edge="1" parent="1" source="d_hsOtI-LlkMr3RKBJvD-20" target="d_hsOtI-LlkMr3RKBJvD-22">
          <mxGeometry relative="1" as="geometry" />
        </mxCell>
        <mxCell id="d_hsOtI-LlkMr3RKBJvD-20" value="build docker images and push to ECR" style="rounded=0;whiteSpace=wrap;html=1;" vertex="1" parent="1">
          <mxGeometry x="30" y="810" width="220" height="90" as="geometry" />
        </mxCell>
        <mxCell id="d_hsOtI-LlkMr3RKBJvD-22" value="create template ami via Packer" style="rounded=0;whiteSpace=wrap;html=1;" vertex="1" parent="1">
          <mxGeometry x="80" y="970" width="120" height="60" as="geometry" />
        </mxCell>
        <mxCell id="d_hsOtI-LlkMr3RKBJvD-24" value="manual parametrised pipeline run&lt;br&gt;&lt;br&gt;terraform pipline&lt;br&gt;&lt;br&gt;action (apply, destroy)&lt;br&gt;&lt;br&gt;env (dev, prod)" style="rounded=0;whiteSpace=wrap;html=1;" vertex="1" parent="1">
          <mxGeometry x="441.75" y="750" width="238.25" height="170" as="geometry" />
        </mxCell>
      </root>
    </mxGraphModel>
  </diagram>
</mxfile>
